<svg xmlns="http://www.w3.org/2000/svg" xmlns:xlink="http://www.w3.org/1999/xlink" width="500" zoomAndPan="magnify" viewBox="0 0 375 374.999991" height="500" preserveAspectRatio="xMidYMid meet" version="1.2"><defs><clipPath id="60d47da0e2"><path d="M 63.082031 63.082031 L 312.082031 63.082031 L 312.082031 312.082031 L 63.082031 312.082031 Z M 63.082031 63.082031 "/></clipPath><clipPath id="a91972d353"><path d="M 102.25 102.378906 L 272.5 102.378906 L 272.5 149.628906 L 102.25 149.628906 Z M 102.25 102.378906 "/></clipPath><clipPath id="76908a7fe9"><path d="M 102.25 218.679688 L 272.5 218.679688 L 272.5 272.5 L 102.25 272.5 Z M 102.25 218.679688 "/></clipPath><clipPath id="24a79d8326"><path d="M 73.585938 181.992188 L 102.085938 181.992188 L 102.085938 210.492188 L 73.585938 210.492188 Z M 73.585938 181.992188 "/></clipPath><clipPath id="99a4b26b3c"><path d="M 272.640625 181.992188 L 301.140625 181.992188 L 301.140625 210.492188 L 272.640625 210.492188 Z M 272.640625 181.992188 "/></clipPath></defs><g id="64ebb14694"><g clip-rule="nonzero" clip-path="url(#60d47da0e2)"><path style=" stroke:none;fill-rule:nonzero;fill:#000000;fill-opacity:1;" d="M 187.582031 312.082031 C 118.957031 312.082031 63.082031 256.210938 63.082031 187.582031 C 63.082031 118.957031 118.957031 63.082031 187.582031 63.082031 C 256.210938 63.082031 312.082031 118.957031 312.082031 187.582031 C 312.082031 256.210938 256.210938 312.082031 187.582031 312.082031 Z M 187.582031 64.921875 C 119.9375 64.921875 64.921875 119.9375 64.921875 187.582031 C 64.921875 255.230469 119.9375 310.242188 187.582031 310.242188 C 255.230469 310.242188 310.242188 255.230469 310.242188 187.582031 C 310.242188 119.9375 255.230469 64.921875 187.582031 64.921875 Z M 187.582031 64.921875 "/></g><g clip-rule="nonzero" clip-path="url(#a91972d353)"><path style=" stroke:none;fill-rule:nonzero;fill:#000000;fill-opacity:1;" d="M 187.375 272.628906 C 140.449219 272.628906 102.25 234.425781 102.25 187.503906 C 102.25 140.578125 140.449219 102.378906 187.375 102.378906 C 234.296875 102.378906 272.5 140.578125 272.5 187.503906 C 272.5 234.425781 234.296875 272.628906 187.375 272.628906 Z M 187.375 103.636719 C 141.121094 103.636719 103.507812 141.25 103.507812 187.503906 C 103.507812 233.753906 141.121094 271.371094 187.375 271.371094 C 233.628906 271.371094 271.242188 233.753906 271.242188 187.503906 C 271.242188 141.25 233.628906 103.636719 187.375 103.636719 Z M 187.375 103.636719 "/></g><g clip-rule="nonzero" clip-path="url(#76908a7fe9)"><path style=" stroke:none;fill-rule:nonzero;fill:#000000;fill-opacity:1;" d="M 187.375 272.5 C 140.449219 272.5 102.25 234.296875 102.25 187.375 C 102.25 140.449219 140.449219 102.25 187.375 102.25 C 234.296875 102.25 272.5 140.449219 272.5 187.375 C 272.5 234.296875 234.296875 272.5 187.375 272.5 Z M 187.375 103.507812 C 141.121094 103.507812 103.507812 141.121094 103.507812 187.375 C 103.507812 233.628906 141.121094 271.242188 187.375 271.242188 C 233.628906 271.242188 271.242188 233.628906 271.242188 187.375 C 271.242188 141.121094 233.628906 103.507812 187.375 103.507812 Z M 187.375 103.507812 "/></g><path style=" stroke:none;fill-rule:nonzero;fill:#ffc7c7;fill-opacity:1;" d="M 196.152344 172.628906 C 221.867188 128.191406 153.292969 128.191406 179.007812 172.628906 C 153.292969 128.191406 119.007812 187.4375 170.4375 187.4375 C 119.007812 187.4375 153.292969 246.6875 179.007812 202.25 C 153.292969 246.6875 221.867188 246.6875 196.152344 202.25 C 221.867188 246.6875 256.152344 187.4375 204.722656 187.4375 C 256.152344 187.4375 221.867188 128.191406 196.152344 172.628906 Z M 196.152344 172.628906 "/><path style=" stroke:none;fill-rule:nonzero;fill:#ff8888;fill-opacity:1;" d="M 200.0625 187.4375 C 200.0625 188.257812 199.980469 189.066406 199.820312 189.867188 C 199.660156 190.671875 199.425781 191.449219 199.113281 192.203125 C 198.796875 192.960938 198.414062 193.675781 197.957031 194.355469 C 197.503906 195.035156 196.984375 195.667969 196.40625 196.246094 C 195.828125 196.824219 195.195312 197.339844 194.515625 197.792969 C 193.832031 198.246094 193.113281 198.628906 192.355469 198.945312 C 191.601562 199.257812 190.820312 199.492188 190.015625 199.652344 C 189.210938 199.8125 188.398438 199.890625 187.582031 199.890625 C 186.761719 199.890625 185.949219 199.8125 185.144531 199.652344 C 184.339844 199.492188 183.5625 199.257812 182.804688 198.945312 C 182.046875 198.628906 181.328125 198.246094 180.644531 197.792969 C 179.964844 197.339844 179.335938 196.824219 178.753906 196.246094 C 178.175781 195.667969 177.65625 195.035156 177.203125 194.355469 C 176.746094 193.675781 176.363281 192.960938 176.050781 192.203125 C 175.734375 191.449219 175.5 190.671875 175.339844 189.867188 C 175.179688 189.066406 175.097656 188.257812 175.097656 187.4375 C 175.097656 186.621094 175.179688 185.8125 175.339844 185.011719 C 175.5 184.207031 175.734375 183.429688 176.050781 182.675781 C 176.363281 181.917969 176.746094 181.203125 177.203125 180.519531 C 177.65625 179.839844 178.175781 179.210938 178.753906 178.632812 C 179.335938 178.054688 179.964844 177.539062 180.644531 177.085938 C 181.328125 176.632812 182.046875 176.25 182.804688 175.933594 C 183.5625 175.621094 184.339844 175.386719 185.144531 175.226562 C 185.949219 175.066406 186.761719 174.988281 187.582031 174.988281 C 188.398438 174.988281 189.210938 175.066406 190.015625 175.226562 C 190.820312 175.386719 191.601562 175.621094 192.355469 175.933594 C 193.113281 176.25 193.832031 176.632812 194.515625 177.085938 C 195.195312 177.539062 195.828125 178.054688 196.40625 178.632812 C 196.984375 179.210938 197.503906 179.839844 197.957031 180.519531 C 198.414062 181.203125 198.796875 181.917969 199.113281 182.675781 C 199.425781 183.429688 199.660156 184.207031 199.820312 185.011719 C 199.980469 185.8125 200.0625 186.621094 200.0625 187.4375 Z M 200.0625 187.4375 "/><g clip-rule="nonzero" clip-path="url(#24a79d8326)"><path style=" stroke:none;fill-rule:nonzero;fill:#ff8888;fill-opacity:1;" d="M 87.835938 181.992188 C 86.445312 193.726562 85.320312 194.851562 73.585938 196.242188 C 73.609375 196.246094 73.632812 196.246094 73.65625 196.25 C 85.324219 197.636719 86.449219 198.78125 87.835938 210.492188 C 89.222656 198.757812 90.347656 197.632812 102.085938 196.242188 C 90.347656 194.851562 89.222656 193.726562 87.835938 181.992188 Z M 87.835938 181.992188 "/></g><g clip-rule="nonzero" clip-path="url(#99a4b26b3c)"><path style=" stroke:none;fill-rule:nonzero;fill:#ff8888;fill-opacity:1;" d="M 286.890625 181.992188 C 285.5 193.726562 284.375 194.851562 272.640625 196.242188 C 272.664062 196.246094 272.6875 196.246094 272.710938 196.25 C 284.378906 197.636719 285.503906 198.78125 286.890625 210.492188 C 288.277344 198.757812 289.402344 197.632812 301.140625 196.242188 C 289.402344 194.851562 288.277344 193.726562 286.890625 181.992188 Z M 286.890625 181.992188 "/></g><g style="fill:#000000;fill-opacity:1;"><g transform="translate(91.744429, 147.470501)"><path style="stroke:none" d="M 1.234375 -2.359375 L -4.84375 -5.546875 L -5.921875 -3.484375 L -7.34375 -4.234375 L -4.296875 -10.046875 L -2.875 -9.296875 L -3.953125 -7.234375 L 2.125 -4.046875 Z M 1.234375 -2.359375 "/></g></g><g style="fill:#000000;fill-opacity:1;"><g transform="translate(99.549119, 133.886906)"><path style="stroke:none" d="M 0.59375 -0.796875 L -6.203125 -5.84375 L -5.0625 -7.375 L -2.453125 -5.4375 L -0.703125 -7.796875 L -3.3125 -9.734375 L -2.15625 -11.28125 L 4.640625 -6.234375 L 3.484375 -4.6875 L 0.65625 -6.796875 L -1.09375 -4.4375 L 1.734375 -2.328125 Z M 0.59375 -0.796875 "/></g></g><g style="fill:#000000;fill-opacity:1;"><g transform="translate(110.379738, 120.529427)"><path style="stroke:none" d="M 0.71875 -0.703125 L -5.203125 -6.75 L -1.421875 -10.46875 L -0.296875 -9.3125 L -2.71875 -6.921875 L -1.53125 -5.71875 L 0.53125 -7.75 L 1.640625 -6.609375 L -0.421875 -4.578125 L 0.953125 -3.1875 L 3.46875 -5.65625 L 4.59375 -4.5 Z M 0.71875 -0.703125 "/></g></g><g style="fill:#000000;fill-opacity:1;"><g transform="translate(122.043535, 110.058379)"><path style="stroke:none" d=""/></g></g><g style="fill:#000000;fill-opacity:1;"><g transform="translate(131.169456, 103.645189)"><path style="stroke:none" d="M 4.015625 -2.109375 C 3.554688 -1.835938 3.070312 -1.664062 2.5625 -1.59375 C 2.050781 -1.53125 1.546875 -1.566406 1.046875 -1.703125 C 0.554688 -1.835938 0.0859375 -2.085938 -0.359375 -2.453125 C -0.804688 -2.828125 -1.207031 -3.320312 -1.5625 -3.9375 C -1.90625 -4.539062 -2.117188 -5.132812 -2.203125 -5.71875 C -2.285156 -6.3125 -2.265625 -6.859375 -2.140625 -7.359375 C -2.015625 -7.867188 -1.785156 -8.328125 -1.453125 -8.734375 C -1.128906 -9.148438 -0.734375 -9.492188 -0.265625 -9.765625 C 0.203125 -10.035156 0.675781 -10.179688 1.15625 -10.203125 C 1.644531 -10.234375 2.085938 -10.195312 2.484375 -10.09375 L 2.203125 -8.53125 C 1.910156 -8.582031 1.628906 -8.601562 1.359375 -8.59375 C 1.097656 -8.59375 0.835938 -8.515625 0.578125 -8.359375 C 0.335938 -8.222656 0.132812 -8.035156 -0.03125 -7.796875 C -0.207031 -7.554688 -0.3125 -7.289062 -0.34375 -7 C -0.382812 -6.707031 -0.367188 -6.382812 -0.296875 -6.03125 C -0.234375 -5.6875 -0.0976562 -5.328125 0.109375 -4.953125 C 0.546875 -4.191406 1.039062 -3.691406 1.59375 -3.453125 C 2.15625 -3.222656 2.707031 -3.265625 3.25 -3.578125 C 3.5625 -3.753906 3.796875 -3.976562 3.953125 -4.25 C 4.117188 -4.519531 4.238281 -4.800781 4.3125 -5.09375 L 5.78125 -4.5625 C 5.582031 -3.476562 4.992188 -2.660156 4.015625 -2.109375 Z M 4.015625 -2.109375 "/></g></g><g style="fill:#000000;fill-opacity:1;"><g transform="translate(145.410828, 96.28221)"><path style="stroke:none" d="M 0.9375 -0.359375 L -2.125 -8.25 L -0.359375 -8.9375 L 2.125 -2.546875 L 5.265625 -3.765625 L 5.84375 -2.265625 Z M 0.9375 -0.359375 "/></g></g><g style="fill:#000000;fill-opacity:1;"><g transform="translate(159.76121, 91.330483)"><path style="stroke:none" d="M 4.375 -0.796875 C 3.820312 -0.671875 3.289062 -0.65625 2.78125 -0.75 C 2.28125 -0.851562 1.820312 -1.054688 1.40625 -1.359375 C 0.988281 -1.660156 0.628906 -2.054688 0.328125 -2.546875 C 0.0351562 -3.035156 -0.1875 -3.625 -0.34375 -4.3125 C -0.488281 -4.976562 -0.523438 -5.597656 -0.453125 -6.171875 C -0.390625 -6.742188 -0.234375 -7.242188 0.015625 -7.671875 C 0.273438 -8.109375 0.613281 -8.46875 1.03125 -8.75 C 1.457031 -9.039062 1.945312 -9.25 2.5 -9.375 C 3.050781 -9.488281 3.578125 -9.503906 4.078125 -9.421875 C 4.585938 -9.335938 5.046875 -9.148438 5.453125 -8.859375 C 5.867188 -8.566406 6.226562 -8.171875 6.53125 -7.671875 C 6.832031 -7.179688 7.050781 -6.609375 7.1875 -5.953125 C 7.34375 -5.265625 7.382812 -4.632812 7.3125 -4.0625 C 7.25 -3.5 7.09375 -2.992188 6.84375 -2.546875 C 6.59375 -2.097656 6.253906 -1.722656 5.828125 -1.421875 C 5.410156 -1.117188 4.925781 -0.910156 4.375 -0.796875 Z M 4.03125 -2.421875 C 4.59375 -2.546875 4.984375 -2.882812 5.203125 -3.4375 C 5.429688 -3.988281 5.453125 -4.6875 5.265625 -5.53125 C 5.085938 -6.351562 4.78125 -6.960938 4.34375 -7.359375 C 3.914062 -7.765625 3.421875 -7.90625 2.859375 -7.78125 C 2.296875 -7.65625 1.894531 -7.320312 1.65625 -6.78125 C 1.425781 -6.238281 1.398438 -5.554688 1.578125 -4.734375 C 1.765625 -3.890625 2.078125 -3.257812 2.515625 -2.84375 C 2.960938 -2.4375 3.46875 -2.296875 4.03125 -2.421875 Z M 4.03125 -2.421875 "/></g></g><g style="fill:#000000;fill-opacity:1;"><g transform="translate(176.823425, 88.344619)"><path style="stroke:none" d="M 2.65625 -0.15625 L 2.25 -7 L -0.078125 -6.859375 L -0.171875 -8.46875 L 6.390625 -8.859375 L 6.484375 -7.25 L 4.15625 -7.109375 L 4.5625 -0.265625 Z M 2.65625 -0.15625 "/></g></g><g style="fill:#000000;fill-opacity:1;"><g transform="translate(192.486812, 88.030136)"><path style="stroke:none" d="M 1 0.09375 L 1.828125 -8.328125 L 3.71875 -8.140625 L 3.40625 -4.90625 L 6.328125 -4.609375 L 6.640625 -7.84375 L 8.5625 -7.65625 L 7.734375 0.765625 L 5.8125 0.578125 L 6.15625 -2.9375 L 3.234375 -3.234375 L 2.890625 0.28125 Z M 1 0.09375 "/></g></g><g style="fill:#000000;fill-opacity:1;"><g transform="translate(209.564954, 90.481643)"><path style="stroke:none" d="M 0.96875 0.234375 L 2.96875 -8 L 4.828125 -7.546875 L 2.828125 0.6875 Z M 0.96875 0.234375 "/></g></g><g style="fill:#000000;fill-opacity:1;"><g transform="translate(221.52434, 93.839598)"><path style="stroke:none" d="M 0.921875 0.375 L 4.0625 -7.484375 L 5.890625 -6.765625 L 6.375 -2.046875 L 6.46875 0 L 6.515625 0.03125 C 6.648438 -0.40625 6.789062 -0.890625 6.9375 -1.421875 C 7.082031 -1.960938 7.25 -2.46875 7.4375 -2.9375 L 8.546875 -5.703125 L 10.234375 -5.03125 L 7.09375 2.828125 L 5.28125 2.109375 L 4.78125 -2.640625 L 4.703125 -4.65625 L 4.65625 -4.671875 C 4.519531 -4.234375 4.378906 -3.75 4.234375 -3.21875 C 4.085938 -2.695312 3.921875 -2.203125 3.734375 -1.734375 L 2.625 1.046875 Z M 0.921875 0.375 "/></g></g><g style="fill:#000000;fill-opacity:1;"><g transform="translate(237.10282, 100.79735)"><path style="stroke:none" d="M 4 2.578125 C 3.5 2.285156 3.078125 1.925781 2.734375 1.5 C 2.398438 1.082031 2.164062 0.617188 2.03125 0.109375 C 1.894531 -0.390625 1.875 -0.925781 1.96875 -1.5 C 2.070312 -2.082031 2.304688 -2.675781 2.671875 -3.28125 C 3.023438 -3.875 3.4375 -4.351562 3.90625 -4.71875 C 4.382812 -5.082031 4.878906 -5.332031 5.390625 -5.46875 C 5.898438 -5.601562 6.425781 -5.625 6.96875 -5.53125 C 7.507812 -5.4375 8.019531 -5.242188 8.5 -4.953125 C 9.019531 -4.640625 9.410156 -4.273438 9.671875 -3.859375 C 9.941406 -3.441406 10.125 -3.039062 10.21875 -2.65625 L 8.734375 -2.125 C 8.648438 -2.394531 8.535156 -2.644531 8.390625 -2.875 C 8.242188 -3.113281 8.015625 -3.328125 7.703125 -3.515625 C 7.421875 -3.691406 7.128906 -3.796875 6.828125 -3.828125 C 6.535156 -3.859375 6.242188 -3.820312 5.953125 -3.71875 C 5.660156 -3.625 5.378906 -3.457031 5.109375 -3.21875 C 4.847656 -2.988281 4.609375 -2.691406 4.390625 -2.328125 C 3.941406 -1.578125 3.757812 -0.894531 3.84375 -0.28125 C 3.9375 0.332031 4.320312 0.847656 5 1.265625 C 5.15625 1.347656 5.3125 1.410156 5.46875 1.453125 C 5.625 1.503906 5.773438 1.519531 5.921875 1.5 L 6.671875 0.234375 L 5.46875 -0.46875 L 6.265625 -1.796875 L 8.921875 -0.21875 L 6.921875 3.125 C 6.503906 3.21875 6.039062 3.226562 5.53125 3.15625 C 5.019531 3.082031 4.507812 2.890625 4 2.578125 Z M 4 2.578125 "/></g></g><g style="fill:#000000;fill-opacity:1;"><g transform="translate(251.123926, 110.087689)"><path style="stroke:none" d=""/></g></g><g style="fill:#000000;fill-opacity:1;"><g transform="translate(259.595008, 117.343666)"><path style="stroke:none" d="M 3.03125 3.375 C 2.664062 2.988281 2.382812 2.554688 2.1875 2.078125 C 1.988281 1.609375 1.894531 1.113281 1.90625 0.59375 C 1.914062 0.0820312 2.039062 -0.429688 2.28125 -0.953125 C 2.53125 -1.484375 2.910156 -1.992188 3.421875 -2.484375 C 3.921875 -2.972656 4.445312 -3.328125 5 -3.546875 C 5.550781 -3.765625 6.085938 -3.875 6.609375 -3.875 C 7.140625 -3.882812 7.644531 -3.78125 8.125 -3.5625 C 8.601562 -3.351562 9.03125 -3.054688 9.40625 -2.671875 C 9.78125 -2.273438 10.039062 -1.847656 10.1875 -1.390625 C 10.332031 -0.929688 10.398438 -0.5 10.390625 -0.09375 L 8.8125 0.03125 C 8.789062 -0.257812 8.742188 -0.535156 8.671875 -0.796875 C 8.597656 -1.066406 8.457031 -1.304688 8.25 -1.515625 C 8.0625 -1.722656 7.828125 -1.875 7.546875 -1.96875 C 7.273438 -2.070312 6.992188 -2.109375 6.703125 -2.078125 C 6.410156 -2.046875 6.101562 -1.945312 5.78125 -1.78125 C 5.457031 -1.625 5.144531 -1.398438 4.84375 -1.109375 C 4.207031 -0.503906 3.84375 0.09375 3.75 0.6875 C 3.664062 1.289062 3.84375 1.816406 4.28125 2.265625 C 4.53125 2.523438 4.800781 2.695312 5.09375 2.78125 C 5.394531 2.875 5.695312 2.921875 6 2.921875 L 5.84375 4.46875 C 4.75 4.539062 3.8125 4.175781 3.03125 3.375 Z M 3.03125 3.375 "/></g></g><g style="fill:#000000;fill-opacity:1;"><g transform="translate(270.256184, 129.268255)"><path style="stroke:none" d="M 2.421875 3.75 C 2.097656 3.28125 1.882812 2.789062 1.78125 2.28125 C 1.675781 1.769531 1.679688 1.269531 1.796875 0.78125 C 1.910156 0.289062 2.140625 -0.1875 2.484375 -0.65625 C 2.828125 -1.132812 3.285156 -1.570312 3.859375 -1.96875 C 4.421875 -2.363281 4.972656 -2.632812 5.515625 -2.78125 C 6.066406 -2.9375 6.59375 -2.984375 7.09375 -2.921875 C 7.59375 -2.859375 8.054688 -2.6875 8.484375 -2.40625 C 8.921875 -2.125 9.300781 -1.75 9.625 -1.28125 C 9.945312 -0.820312 10.160156 -0.34375 10.265625 0.15625 C 10.378906 0.65625 10.378906 1.148438 10.265625 1.640625 C 10.148438 2.128906 9.925781 2.601562 9.59375 3.0625 C 9.257812 3.53125 8.816406 3.957031 8.265625 4.34375 C 7.691406 4.738281 7.125 5.019531 6.5625 5.1875 C 6.007812 5.351562 5.476562 5.40625 4.96875 5.34375 C 4.46875 5.28125 4 5.113281 3.5625 4.84375 C 3.125 4.570312 2.742188 4.207031 2.421875 3.75 Z M 3.78125 2.796875 C 4.113281 3.265625 4.578125 3.492188 5.171875 3.484375 C 5.773438 3.484375 6.429688 3.234375 7.140625 2.734375 C 7.828125 2.253906 8.269531 1.738281 8.46875 1.1875 C 8.664062 0.632812 8.597656 0.125 8.265625 -0.34375 C 7.929688 -0.820312 7.472656 -1.0625 6.890625 -1.0625 C 6.304688 -1.070312 5.671875 -0.835938 4.984375 -0.359375 C 4.273438 0.140625 3.8125 0.671875 3.59375 1.234375 C 3.382812 1.796875 3.445312 2.316406 3.78125 2.796875 Z M 3.78125 2.796875 "/></g></g><g style="fill:#000000;fill-opacity:1;"><g transform="translate(279.559561, 143.949767)"><path style="stroke:none" d="M 0.734375 1.828125 C 0.585938 1.523438 0.566406 1.222656 0.671875 0.921875 C 0.773438 0.628906 0.984375 0.40625 1.296875 0.25 C 1.597656 0.09375 1.898438 0.0546875 2.203125 0.140625 C 2.515625 0.234375 2.742188 0.429688 2.890625 0.734375 C 3.035156 1.015625 3.054688 1.304688 2.953125 1.609375 C 2.847656 1.921875 2.644531 2.15625 2.34375 2.3125 C 2.03125 2.46875 1.71875 2.492188 1.40625 2.390625 C 1.101562 2.296875 0.878906 2.109375 0.734375 1.828125 Z M 0.734375 1.828125 "/></g></g><g style="fill:#000000;fill-opacity:1;"><g transform="translate(84.293644, 234.098294)"><path style="stroke:none" d="M 1.234375 2.359375 L 7.3125 -0.828125 L 6.234375 -2.890625 L 7.65625 -3.640625 L 10.703125 2.171875 L 9.28125 2.921875 L 8.203125 0.859375 L 2.125 4.046875 Z M 1.234375 2.359375 "/></g></g><g style="fill:#000000;fill-opacity:1;"><g transform="translate(92.797459, 248.793738)"><path style="stroke:none" d="M 0.59375 0.796875 L 7.390625 -4.25 L 8.53125 -2.71875 L 5.921875 -0.78125 L 7.671875 1.578125 L 10.28125 -0.359375 L 11.4375 1.1875 L 4.640625 6.234375 L 3.484375 4.6875 L 6.3125 2.578125 L 4.5625 0.21875 L 1.734375 2.328125 Z M 0.59375 0.796875 "/></g></g><g style="fill:#000000;fill-opacity:1;"><g transform="translate(104.488847, 263.13789)"><path style="stroke:none" d="M 0.71875 0.703125 L 6.640625 -5.34375 L 10.421875 -1.625 L 9.296875 -0.46875 L 6.875 -2.859375 L 5.6875 -1.65625 L 7.75 0.375 L 6.640625 1.515625 L 4.578125 -0.515625 L 3.203125 0.875 L 5.71875 3.34375 L 4.59375 4.5 Z M 0.71875 0.703125 "/></g></g><g style="fill:#000000;fill-opacity:1;"><g transform="translate(116.965183, 274.309847)"><path style="stroke:none" d=""/></g></g><g style="fill:#000000;fill-opacity:1;"><g transform="translate(127.00103, 281.323254)"><path style="stroke:none" d="M 3.859375 2.390625 C 3.398438 2.117188 3.007812 1.78125 2.6875 1.375 C 2.363281 0.976562 2.132812 0.535156 2 0.046875 C 1.875 -0.441406 1.851562 -0.972656 1.9375 -1.546875 C 2.019531 -2.128906 2.238281 -2.726562 2.59375 -3.34375 C 2.9375 -3.945312 3.335938 -4.429688 3.796875 -4.796875 C 4.253906 -5.171875 4.738281 -5.429688 5.25 -5.578125 C 5.757812 -5.734375 6.269531 -5.773438 6.78125 -5.703125 C 7.300781 -5.640625 7.796875 -5.472656 8.265625 -5.203125 C 8.734375 -4.929688 9.101562 -4.59375 9.375 -4.1875 C 9.65625 -3.789062 9.847656 -3.394531 9.953125 -3 L 8.453125 -2.4375 C 8.367188 -2.71875 8.25 -2.96875 8.09375 -3.1875 C 7.945312 -3.414062 7.742188 -3.609375 7.484375 -3.765625 C 7.242188 -3.898438 6.976562 -3.976562 6.6875 -4 C 6.40625 -4.019531 6.125 -3.972656 5.84375 -3.859375 C 5.570312 -3.742188 5.300781 -3.566406 5.03125 -3.328125 C 4.769531 -3.097656 4.535156 -2.796875 4.328125 -2.421875 C 3.890625 -1.660156 3.710938 -0.976562 3.796875 -0.375 C 3.890625 0.21875 4.207031 0.671875 4.75 0.984375 C 5.0625 1.160156 5.367188 1.25 5.671875 1.25 C 5.984375 1.25 6.28125 1.207031 6.5625 1.125 L 6.875 2.65625 C 5.84375 3.03125 4.835938 2.941406 3.859375 2.390625 Z M 3.859375 2.390625 "/></g></g><g style="fill:#000000;fill-opacity:1;"><g transform="translate(142.369889, 289.222649)"><path style="stroke:none" d="M 0.9375 0.359375 L 4 -7.53125 L 5.765625 -6.84375 L 3.28125 -0.453125 L 6.421875 0.765625 L 5.84375 2.265625 Z M 0.9375 0.359375 "/></g></g><g style="fill:#000000;fill-opacity:1;"><g transform="translate(157.964516, 294.549027)"><path style="stroke:none" d="M 4.3125 1.109375 C 3.757812 0.984375 3.269531 0.769531 2.84375 0.46875 C 2.425781 0.175781 2.09375 -0.191406 1.84375 -0.640625 C 1.59375 -1.085938 1.429688 -1.597656 1.359375 -2.171875 C 1.296875 -2.742188 1.34375 -3.375 1.5 -4.0625 C 1.644531 -4.726562 1.863281 -5.304688 2.15625 -5.796875 C 2.457031 -6.285156 2.8125 -6.671875 3.21875 -6.953125 C 3.632812 -7.242188 4.09375 -7.429688 4.59375 -7.515625 C 5.101562 -7.609375 5.632812 -7.59375 6.1875 -7.46875 C 6.738281 -7.351562 7.222656 -7.148438 7.640625 -6.859375 C 8.066406 -6.566406 8.40625 -6.203125 8.65625 -5.765625 C 8.914062 -5.328125 9.078125 -4.820312 9.140625 -4.25 C 9.203125 -3.6875 9.164062 -3.078125 9.03125 -2.421875 C 8.875 -1.734375 8.644531 -1.140625 8.34375 -0.640625 C 8.050781 -0.148438 7.695312 0.242188 7.28125 0.546875 C 6.863281 0.847656 6.398438 1.046875 5.890625 1.140625 C 5.390625 1.234375 4.863281 1.222656 4.3125 1.109375 Z M 4.65625 -0.515625 C 5.21875 -0.390625 5.71875 -0.535156 6.15625 -0.953125 C 6.601562 -1.367188 6.921875 -2 7.109375 -2.84375 C 7.285156 -3.664062 7.253906 -4.34375 7.015625 -4.875 C 6.785156 -5.414062 6.390625 -5.75 5.828125 -5.875 C 5.265625 -6 4.765625 -5.863281 4.328125 -5.46875 C 3.898438 -5.070312 3.597656 -4.460938 3.421875 -3.640625 C 3.234375 -2.796875 3.25 -2.09375 3.46875 -1.53125 C 3.695312 -0.976562 4.09375 -0.640625 4.65625 -0.515625 Z M 4.65625 -0.515625 "/></g></g><g style="fill:#000000;fill-opacity:1;"><g transform="translate(176.332795, 297.71465)"><path style="stroke:none" d="M 2.65625 0.15625 L 3.0625 -6.6875 L 0.734375 -6.828125 L 0.828125 -8.4375 L 7.390625 -8.046875 L 7.296875 -6.4375 L 4.96875 -6.578125 L 4.5625 0.265625 Z M 2.65625 0.15625 "/></g></g><g style="fill:#000000;fill-opacity:1;"><g transform="translate(193.309274, 298.003146)"><path style="stroke:none" d="M 1 -0.09375 L 0.171875 -8.515625 L 2.0625 -8.703125 L 2.375 -5.46875 L 5.296875 -5.765625 L 4.984375 -9 L 6.90625 -9.1875 L 7.734375 -0.765625 L 5.8125 -0.578125 L 5.46875 -4.09375 L 2.546875 -3.796875 L 2.890625 -0.28125 Z M 1 -0.09375 "/></g></g><g style="fill:#000000;fill-opacity:1;"><g transform="translate(211.556893, 295.352736)"><path style="stroke:none" d="M 0.96875 -0.234375 L -1.03125 -8.46875 L 0.828125 -8.921875 L 2.828125 -0.6875 Z M 0.96875 -0.234375 "/></g></g><g style="fill:#000000;fill-opacity:1;"><g transform="translate(224.642026, 291.635064)"><path style="stroke:none" d="M 0.921875 -0.375 L -2.21875 -8.234375 L -0.390625 -8.953125 L 3.21875 -5.890625 L 4.6875 -4.4375 L 4.734375 -4.46875 C 4.535156 -4.863281 4.304688 -5.304688 4.046875 -5.796875 C 3.785156 -6.296875 3.5625 -6.78125 3.375 -7.25 L 2.265625 -10.015625 L 3.953125 -10.6875 L 7.09375 -2.828125 L 5.28125 -2.109375 L 1.65625 -5.203125 L 0.203125 -6.625 L 0.15625 -6.609375 C 0.375 -6.191406 0.609375 -5.738281 0.859375 -5.25 C 1.109375 -4.769531 1.328125 -4.296875 1.515625 -3.828125 L 2.625 -1.046875 Z M 0.921875 -0.375 "/></g></g><g style="fill:#000000;fill-opacity:1;"><g transform="translate(241.430045, 284.078229)"><path style="stroke:none" d="M 4.15625 -2.296875 C 3.65625 -2.003906 3.140625 -1.804688 2.609375 -1.703125 C 2.085938 -1.609375 1.570312 -1.617188 1.0625 -1.734375 C 0.550781 -1.859375 0.0664062 -2.097656 -0.390625 -2.453125 C -0.859375 -2.816406 -1.273438 -3.300781 -1.640625 -3.90625 C -1.992188 -4.5 -2.21875 -5.085938 -2.3125 -5.671875 C -2.414062 -6.253906 -2.40625 -6.804688 -2.28125 -7.328125 C -2.15625 -7.847656 -1.925781 -8.320312 -1.59375 -8.75 C -1.257812 -9.175781 -0.851562 -9.535156 -0.375 -9.828125 C 0.144531 -10.140625 0.648438 -10.316406 1.140625 -10.359375 C 1.640625 -10.398438 2.082031 -10.363281 2.46875 -10.25 L 2.234375 -8.6875 C 1.960938 -8.75 1.6875 -8.769531 1.40625 -8.75 C 1.125 -8.738281 0.828125 -8.640625 0.515625 -8.453125 C 0.234375 -8.273438 0.0078125 -8.066406 -0.15625 -7.828125 C -0.332031 -7.585938 -0.441406 -7.3125 -0.484375 -7 C -0.523438 -6.695312 -0.503906 -6.367188 -0.421875 -6.015625 C -0.347656 -5.671875 -0.203125 -5.316406 0.015625 -4.953125 C 0.460938 -4.203125 0.976562 -3.722656 1.5625 -3.515625 C 2.15625 -3.304688 2.789062 -3.410156 3.46875 -3.828125 C 3.625 -3.910156 3.757812 -4.007812 3.875 -4.125 C 3.988281 -4.25 4.066406 -4.375 4.109375 -4.5 L 3.359375 -5.765625 L 2.15625 -5.0625 L 1.359375 -6.390625 L 4.015625 -7.96875 L 6.015625 -4.625 C 5.910156 -4.21875 5.703125 -3.804688 5.390625 -3.390625 C 5.078125 -2.972656 4.664062 -2.609375 4.15625 -2.296875 Z M 4.15625 -2.296875 "/></g></g><g style="fill:#000000;fill-opacity:1;"><g transform="translate(256.369585, 274.150522)"><path style="stroke:none" d=""/></g></g><g style="fill:#000000;fill-opacity:1;"><g transform="translate(265.647134, 266.161205)"><path style="stroke:none" d="M 3.25 -3.15625 C 2.882812 -2.769531 2.46875 -2.46875 2 -2.25 C 1.53125 -2.039062 1.039062 -1.929688 0.53125 -1.921875 C 0.0195312 -1.921875 -0.5 -2.03125 -1.03125 -2.25 C -1.570312 -2.476562 -2.097656 -2.835938 -2.609375 -3.328125 C -3.109375 -3.816406 -3.476562 -4.332031 -3.71875 -4.875 C -3.957031 -5.414062 -4.085938 -5.945312 -4.109375 -6.46875 C -4.140625 -7 -4.054688 -7.503906 -3.859375 -7.984375 C -3.660156 -8.472656 -3.375 -8.910156 -3 -9.296875 C -2.625 -9.691406 -2.207031 -9.96875 -1.75 -10.125 C -1.289062 -10.28125 -0.859375 -10.363281 -0.453125 -10.375 L -0.28125 -8.8125 C -0.570312 -8.789062 -0.847656 -8.734375 -1.109375 -8.640625 C -1.367188 -8.554688 -1.601562 -8.410156 -1.8125 -8.203125 C -2 -7.992188 -2.132812 -7.75 -2.21875 -7.46875 C -2.3125 -7.195312 -2.335938 -6.914062 -2.296875 -6.625 C -2.253906 -6.332031 -2.148438 -6.023438 -1.984375 -5.703125 C -1.816406 -5.390625 -1.582031 -5.085938 -1.28125 -4.796875 C -0.644531 -4.191406 -0.03125 -3.851562 0.5625 -3.78125 C 1.164062 -3.71875 1.6875 -3.910156 2.125 -4.359375 C 2.375 -4.617188 2.535156 -4.894531 2.609375 -5.1875 C 2.691406 -5.488281 2.726562 -5.785156 2.71875 -6.078125 L 4.28125 -6 C 4.375 -4.90625 4.03125 -3.957031 3.25 -3.15625 Z M 3.25 -3.15625 "/></g></g><g style="fill:#000000;fill-opacity:1;"><g transform="translate(277.154552, 253.208845)"><path style="stroke:none" d="M 2.671875 -3.5625 C 2.347656 -3.09375 1.96875 -2.722656 1.53125 -2.453125 C 1.09375 -2.179688 0.617188 -2.015625 0.109375 -1.953125 C -0.398438 -1.890625 -0.929688 -1.9375 -1.484375 -2.09375 C -2.035156 -2.257812 -2.597656 -2.539062 -3.171875 -2.9375 C -3.734375 -3.332031 -4.179688 -3.757812 -4.515625 -4.21875 C -4.859375 -4.6875 -5.082031 -5.164062 -5.1875 -5.65625 C -5.289062 -6.144531 -5.285156 -6.640625 -5.171875 -7.140625 C -5.066406 -7.640625 -4.851562 -8.125 -4.53125 -8.59375 C -4.207031 -9.050781 -3.828125 -9.421875 -3.390625 -9.703125 C -2.960938 -9.984375 -2.5 -10.15625 -2 -10.21875 C -1.5 -10.28125 -0.972656 -10.226562 -0.421875 -10.0625 C 0.128906 -9.90625 0.679688 -9.632812 1.234375 -9.25 C 1.804688 -8.851562 2.257812 -8.421875 2.59375 -7.953125 C 2.9375 -7.484375 3.164062 -7.003906 3.28125 -6.515625 C 3.40625 -6.023438 3.414062 -5.523438 3.3125 -5.015625 C 3.207031 -4.503906 2.992188 -4.019531 2.671875 -3.5625 Z M 1.3125 -4.515625 C 1.644531 -4.984375 1.703125 -5.492188 1.484375 -6.046875 C 1.273438 -6.609375 0.816406 -7.140625 0.109375 -7.640625 C -0.578125 -8.117188 -1.210938 -8.359375 -1.796875 -8.359375 C -2.378906 -8.359375 -2.835938 -8.125 -3.171875 -7.65625 C -3.503906 -7.175781 -3.570312 -6.65625 -3.375 -6.09375 C -3.175781 -5.539062 -2.734375 -5.023438 -2.046875 -4.546875 C -1.335938 -4.046875 -0.679688 -3.796875 -0.078125 -3.796875 C 0.515625 -3.796875 0.976562 -4.035156 1.3125 -4.515625 Z M 1.3125 -4.515625 "/></g></g><g style="fill:#000000;fill-opacity:1;"><g transform="translate(287.068956, 237.505258)"><path style="stroke:none" d="M 1.015625 -1.671875 C 0.867188 -1.367188 0.644531 -1.171875 0.34375 -1.078125 C 0.0390625 -0.992188 -0.265625 -1.03125 -0.578125 -1.1875 C -0.878906 -1.34375 -1.082031 -1.566406 -1.1875 -1.859375 C -1.300781 -2.160156 -1.285156 -2.460938 -1.140625 -2.765625 C -0.992188 -3.046875 -0.765625 -3.234375 -0.453125 -3.328125 C -0.140625 -3.429688 0.164062 -3.40625 0.46875 -3.25 C 0.78125 -3.09375 0.984375 -2.859375 1.078125 -2.546875 C 1.179688 -2.242188 1.160156 -1.953125 1.015625 -1.671875 Z M 1.015625 -1.671875 "/></g></g></g></svg>